<?xml version="1.0" encoding="utf-8"?>
<!-- Generator: Adobe Illustrator 18.1.1, SVG Export Plug-In . SVG Version: 6.00 Build 0)  -->
<svg version="1.1" id="Layer_1" xmlns="http://www.w3.org/2000/svg" xmlns:xlink="http://www.w3.org/1999/xlink" x="0px" y="0px"
	 viewBox="0 0 80 105.9" enable-background="new 0 0 80 105.9" xml:space="preserve">
<path fill="#FFFFFF" d="M80,19c0,0-14.5-2.6-21.7-6C50.8,9.4,40,0,40,0L40,0.1c0,0-10.2,9.5-18.4,13c-8.4,3.6-21.7,6-21.7,6
	s-0.6,23.3,6.3,43.4c10.6,31.2,33.8,43.4,33.8,43.4l0,0c0,0,23-12.2,33.6-43.4C80.6,42.3,80,19,80,19 M24.9,86.1
	c-5.1-6.3-10.4-14.6-14-25.2C6.1,46.6,5.1,30.3,5,23.1c4.8-1,12.7-3,18.6-5.5c6-2.5,12.7-7.8,16.6-11.1c3.1,2.5,8,6.3,12.6,9
	C46.3,22.1,24.2,47.6,24.9,86.1 M69.1,60.8c-7.9,23.3-23.3,35.4-29,39.3c-2.2-1.5-5.9-4.2-10-8.3c0-0.1,0-0.2,0-0.3
	C26.9,49.5,53.6,21.6,57.3,18c5.3,2.3,13,4.1,17.7,5.1C74.9,30.3,73.9,46.5,69.1,60.8"/>
</svg>
