<?xml version="1.0" encoding="utf-8"?>
<!-- Generator: Adobe Illustrator 18.1.1, SVG Export Plug-In . SVG Version: 6.00 Build 0)  -->
<svg version="1.1" id="Layer_1" xmlns="http://www.w3.org/2000/svg" xmlns:xlink="http://www.w3.org/1999/xlink" x="0px" y="0px"
	 viewBox="0 0 63.5 92.7" enable-background="new 0 0 63.5 92.7" xml:space="preserve">
<path d="M33.5,5.1c-4-1.9,6.3-6.7,17.6-4.5c8.1,1.6,15.5,7.7,11.1,27.7c-4.4,20-7.9,19.3-6.8,25.5c1.1,6.1-3.3,35.7-12.1,37.2
	c-8.8,1.6,5.3-36.1-11.2-35C15.7,57,27.8,92.3,19,92.7C10.3,93.1,7.3,68.8,10.2,53C13,37.2-3.7,28.7,0.7,13.9
	C5.4-1.4,16-0.3,26.5,6.1c15.2,9.3,20.7,10.2,19.1,5.4C44.1,7,37.5,6.9,33.5,5.1z"/>
</svg>
