<?xml version="1.0" encoding="utf-8"?>
<!-- Generator: Adobe Illustrator 18.1.1, SVG Export Plug-In . SVG Version: 6.00 Build 0)  -->
<svg version="1.1" id="Layer_1" xmlns="http://www.w3.org/2000/svg" xmlns:xlink="http://www.w3.org/1999/xlink" x="0px" y="0px"
	 viewBox="0 0 420 171.7" enable-background="new 0 0 420 171.7" xml:space="preserve">
<g>
	<g>
		<g>
			<g>
				<g>
					<path id="XMLID_223_" fill="#1D1D1B" d="M230.9,119.8h15.9l3.3-14.7h-15.9l3.5-14.6h-18.1c0,0-13.1,56.2-14.2,61.4
						c-2.9,13.1,1.3,19.9,15.5,19.9c5.9,0,12.8,0,12.8,0l3.1-14.9c0,0-4.6,0-8,0c-5.6,0-5.5-3.4-4.3-8.5
						C225.4,143.9,230.9,119.8,230.9,119.8z"/>
					<path id="XMLID_221_" fill="#1D1D1B" d="M59.4,108.5c4.4-18.3,15.7-22.7,30.4-22.7c14.9,0,24.2,0,24.2,0l-3.7,16.6
						c0,0-13.5,0-18.4,0c-8.8,0-11.4,3.5-13.5,12.1c-2,8.3-4.2,18.4-6.5,28.5c-2,9.1,0.4,12.1,8.1,12.1c8.4,0,16.1,0,16.1,0
						l-3.6,16.5c0,0-8.9,0-24.9,0c-16.8,0-20.4-9.8-17.3-23.4C53.5,134.1,55,126.5,59.4,108.5z"/>
					<path id="XMLID_218_" fill="#1D1D1B" d="M128.7,105c0,0,4.9,0,9.8,0c12,0,17.6,6.6,15.2,17.6c-1.8,8.3-5.2,22.9-5.2,22.9
						l-31.1,0.1c0,0-0.4,1.7-1,4.2c-1,4.4-0.4,7.2,5.4,7.2c6.6,0,22.4,0,22.4,0l-3.4,14.6c0,0-13.9,0-25.3,0
						c-14.8,0-19.7-7.5-16.9-19.9l6.6-28.3C108.4,110.9,116.3,105,128.7,105z M135.1,132.9c0,0,0.9-3.3,1.8-7.3
						c0.9-4.5-0.2-7-4.9-7.1h-2.4c-3.9,0.1-6.2,2.1-7.2,6c-0.7,2.8-1.9,8.4-1.9,8.4L135.1,132.9z"/>
					<path id="XMLID_216_" fill="#1D1D1B" d="M163.3,105.1c0,0,14.8,0,26.4,0c13.2,0,18.9,6.8,16,19.7
						c-2.8,12.4-10.5,46.9-10.5,46.9H177c0,0,9.3-40.7,10.1-44.8c0.8-4.1,0.8-7.1-5.3-7.1c-2.5,0-3.5,0-3.5,0l-11.7,51.9h-18.3
						L163.3,105.1z"/>
					<path fill="#1D1D1B" d="M395.2,105.1c-1.7,0-2-0.1-3.2-0.1c-8.3,0-12.6,4.6-12.6,4.6s-3.2-4.5-13.6-4.5c-11.6,0-24.9,0-24.9,0
						l-15.1,66.6h18.3l11.7-51.9c0,0,1,0,3.5,0c6.2,0,5.2,3.1,4.4,7.1c-0.8,4.1-10.1,44.8-10.1,44.8H372c0,0,7.8-34.4,10.5-46.9
						c0.4-1.7,0.6-3.4,0.6-5c1.4,0,2.9,0,4.1,0c6.2,0,5.2,3.1,4.4,7.1c-0.8,4.1-10.1,44.8-10.1,44.8h18.3c0,0,7.7-34.4,10.5-46.9
						C413.1,111.9,408.4,105.1,395.2,105.1z"/>
					<path id="XMLID_214_" fill="#1D1D1B" d="M319.7,171.7c0,0-14.8,0-26.4,0c-13.2,0-18.9-6.8-16-19.7
						c2.8-12.4,10.5-46.9,10.5-46.9H306c0,0-9.4,40.4-10.2,44.5c-0.8,4.1-0.8,7.1,5.3,7.1c2.5,0,3.5,0,3.5,0l11.8-51.6h18.3
						L319.7,171.7z"/>
					<path id="XMLID_212_" fill="#1D1D1B" d="M270.9,105c7.2,0,12.6,0,12.6,0l-3.5,15.1c0,0-4.4,0-5.7,0c-4.6,0-6.4,1.7-7.7,7.4
						c-1.2,5.4-10.1,44.1-10.1,44.1h-18.3l11.8-50.4C252.7,110.2,258.5,105,270.9,105z"/>
				</g>
				<g>
					<defs>
						<path id="SVGID_1_" d="M210.8,5.7C95,22.8,0.9,71.7,0,115c-0.4,17,13.8,29.7,38.2,37.8c-11.2-6.7-17-15.2-15.8-25.7
							c4.2-35.9,88-70.2,187.8-76.5c95.7-6.1,167.8,12.8,173.6,46.8c21.9-11.7,34.9-25.7,36.1-42.8C422.9,11.6,327.5-11.5,210.8,5.7
							z"/>
					</defs>
					<clipPath id="SVGID_2_">
						<use xlink:href="#SVGID_1_"  overflow="visible"/>
					</clipPath>
					<g clip-path="url(#SVGID_2_)">
						<g>
							<polygon fill="#E74E0F" points="66.2,168.8 37.2,168.8 78,-9.6 107,-9.6 							"/>
							<polygon fill="#E20613" points="37.2,168.8 -31.2,168.8 9.6,-9.6 78,-9.6 							"/>
							<polygon fill="#EE7D00" points="95.3,168.8 66.2,168.8 107,-9.6 136.1,-9.6 							"/>
							<polygon fill="#F6A500" points="124.3,168.8 95.3,168.8 136.1,-9.6 165.2,-9.6 							"/>
							<polygon fill="#FFCB00" points="153.4,168.8 124.3,168.8 165.2,-9.6 194.2,-9.6 							"/>
							<polygon fill="#FFEC00" points="182.5,168.8 153.4,168.8 194.2,-9.6 223.3,-9.6 							"/>
							<polygon fill="#DDDB00" points="211.5,168.8 182.5,168.8 223.3,-9.6 252.3,-9.6 							"/>
							<polygon fill="#AEC90B" points="240.6,168.8 211.5,168.8 252.3,-9.6 281.4,-9.6 							"/>
							<polygon fill="#51AD32" points="269.7,168.8 240.6,168.8 281.4,-9.6 310.5,-9.6 							"/>
							<polygon fill="#009C3D" points="298.7,168.8 269.7,168.8 310.5,-9.6 339.5,-9.6 							"/>
							<polygon fill="#009992" points="327.8,168.8 298.7,168.8 339.5,-9.6 368.6,-9.6 							"/>
							<polygon fill="#009EE2" points="356.9,168.8 327.8,168.8 368.6,-9.6 397.7,-9.6 							"/>
							<polygon fill="#0080C8" points="404.1,168.8 356.9,168.8 397.7,-9.6 444.9,-9.6 							"/>
						</g>
					</g>
				</g>
				
					<linearGradient id="SVGID_3_" gradientUnits="userSpaceOnUse" x1="-673.0045" y1="1769.8746" x2="-284.0288" y2="1769.8746" gradientTransform="matrix(1 0 0 1 699.2305 -1728.3351)">
					<stop  offset="1.840490e-002" style="stop-color:#FFFFFF;stop-opacity:0.1"/>
					<stop  offset="0.6626" style="stop-color:#FFFFFF;stop-opacity:0.73"/>
					<stop  offset="0.8712" style="stop-color:#FFFFFF;stop-opacity:0.7347"/>
					<stop  offset="1" style="stop-color:#FFFFFF;stop-opacity:0.2"/>
				</linearGradient>
				<path fill="url(#SVGID_3_)" d="M210.9,9.7C135.6,20.8,64,46.7,26.2,79.2c40.9-30.8,109.7-54.1,180.1-64.4
					C324.5-2.6,416.8,18.3,413.4,63c1.1-2.6,1.7-5.2,1.8-7.9C417.3,13.9,325.4-7.2,210.9,9.7z"/>
			</g>
		</g>
	</g>
</g>
</svg>
